<?xml version="1.0" encoding="utf-8"?>
<svg xmlns="http://www.w3.org/2000/svg" viewBox="-298.4734 -359.5988 1164.6498 1251.0664" width="1164.65px" height="1251.07px" preserveAspectRatio="none"><defs><clipPath id="clipPath18" clipPathUnits="userSpaceOnUse"><path id="path16" d="M 0,1500 H 1500 V 0 H 0 Z"/></clipPath><clipPath id="clipPath46" clipPathUnits="userSpaceOnUse"><path id="path44" d="M 0,1500 H 1500 V 0 H 0 Z"/></clipPath><clipPath id="clipPath90" clipPathUnits="userSpaceOnUse"><path id="path88" d="M 0,1500 H 1500 V 0 H 0 Z"/></clipPath></defs><g id="svg2"><g transform="matrix(1.333333, 0, 0, -1.333333, -720.410716, 1328.951924)" id="g10"><g id="g12"><g clip-path="url(#clipPath18)" id="g14"><g transform="translate(522.7317,786.5696)" id="g20"><path id="path22" style="fill:none;stroke:#286b58;stroke-width:5;stroke-linecap:butt;stroke-linejoin:miter;stroke-miterlimit:10;stroke-dasharray:none;stroke-opacity:1" d="m 0,0 c -0.18,-2.48 -0.26,-4.97 -0.26,-7.48 0,-3.95 -0.1,-7.9 -0.2,-11.85 -0.62,-23.85 0.128,-48.247 1.3,-72.16 1.964,-40.087 5.182,-46.771 6.686,-50.921 12.361,-34.111 39.767,-53.192 47.387,-49.492"/></g><g transform="translate(951.9223,582.2441)" id="g24"><path id="path26" style="fill:none;stroke:#48695f;stroke-width:5;stroke-linecap:butt;stroke-linejoin:miter;stroke-miterlimit:10;stroke-dasharray:none;stroke-opacity:1" d="m 0,0 c 7.62,-3.7 31.857,17.296 44.218,51.408 1.504,4.15 4.722,10.833 6.687,50.92 1.171,23.913 1.92,48.31 1.3,72.16 -0.1,3.95 -0.2,7.9 -0.2,11.85 0,2.51 -0.08,5 -0.26,7.48"/></g><g transform="translate(973.4784,804.2312)" id="g28"><path id="path30" style="fill:#286b58;fill-opacity:1;fill-rule:nonzero;stroke:none" d="m 0,0 c 1.857,-5.583 3.829,-13.428 4.286,-22.961 0.464,-9.685 -0.795,-17.794 -2.143,-23.574 3.753,1.674 9.656,3.823 16.147,7.336 9.235,4.998 14.095,7.989 14.667,12.385 C 33.944,-19.213 19.741,-6.719 0,0"/></g><g transform="translate(556.4682,811.2833)" id="g32"><path id="path34" style="fill:#286b58;fill-opacity:1;fill-rule:nonzero;stroke:none" d="m 0,0 c -1.857,-5.583 -3.562,-11.093 -4.018,-20.627 -0.464,-9.684 2.67,-22.614 4.018,-28.395 -3.753,1.674 -15.339,4.864 -21.83,8.377 -9.234,4.997 -14.095,7.989 -14.666,12.385 C -37.484,-20.659 -19.741,-6.719 0,0"/></g></g></g><text id="text38" style="font-variant: normal; font-weight: 500; font-stretch: normal; font-size: 70px; font-family: &quot;Poppins Medium&quot;; writing-mode: lr-tb; fill: rgb(40, 107, 88); fill-opacity: 1; fill-rule: nonzero; stroke: none; white-space: pre;" transform="matrix(1,0,0,-1,344.043,343.1133)"><tspan id="tspan36" y="0" x="0 60.48 152.95 243.53 322.20999 406.48999 487.97 591.71002 670.39001 762.85999">INVESTMENT</tspan></text><g id="g40"><g clip-path="url(#clipPath46)" id="g42"><g transform="translate(1115.7007,589.4733)" id="g48"><path id="path50" style="fill:none;stroke:#48695f;stroke-width:5;stroke-linecap:butt;stroke-linejoin:miter;stroke-miterlimit:10;stroke-dasharray:none;stroke-opacity:1" d="m 0,0 c 44.59,68.07 74.24,156.59 74.24,244.03 0,74.17 -18.65,144 -51.53,205.01 -8.93,16.6 -18.92,32.54 -29.88,47.75 -17.13,23.77 -36.61,45.75 -58.12,65.57 -2.81,2.59 -5.64,5.14 -8.51,7.65 -1.17,1.02 -2.35,2.04 -3.53,3.05 -8.88,7.61 -18.08,14.86 -27.57,21.74 -5.29,3.83 -10.67,7.55 -16.14,11.14 -3.15,2.08 -6.34,4.11 -9.55,6.11 -66.23,41.14 -144.38,64.89 -228.09,64.89 -239.1,0 -432.92,-193.81 -432.92,-432.91 0,-91.83 28.6,-176.99 77.37,-247.06"/></g><g transform="translate(671.0791,916.5261)" id="g52"><path id="path54" style="fill:#2c5047;fill-opacity:1;fill-rule:nonzero;stroke:none" d="m 0,0 c 10.019,28.806 38.283,64.347 80.841,71.859 31.474,5.556 56.511,-6.736 63.874,-10.48 38.145,-19.396 51.529,-55.102 54.393,-63.375 -10.205,1.222 -35.815,2.89 -63.375,-10.978 -22.147,-11.144 -35.007,-27.014 -40.919,-35.431 -6.046,8.204 -19.007,23.499 -40.92,34.433 C 30.747,-2.422 9.576,-1.71 -0.681,-2.032 -0.528,-1.558 -0.296,-0.851 0,0"/></g><g transform="translate(612.5243,745.4902)" id="g56"><path id="path58" style="fill:#3b6254;fill-opacity:1;fill-rule:nonzero;stroke:none" d="m 0,0 c -1.324,7.806 -3.97,15.447 -9.983,18.512 -5.752,2.932 -13.489,1.155 -17.385,-3.993 -1.698,-2.243 -2.681,-4.954 -4.319,-7.242 -1.637,-2.288 -4.315,-4.214 -7.08,-3.695 -3.578,0.672 -5.2,4.798 -6.028,8.343 -11.028,47.201 0.811,97.451 44.856,123.599 45.554,27.045 111.774,17.389 141.343,-26.575 13.122,-19.51 19.747,-43.157 19.523,-66.61 -0.179,-18.771 -3.316,-37.373 -6.444,-55.882 -0.559,-3.307 -3.251,-7.671 -6.057,-5.836 -0.798,0.523 -1.233,1.438 -1.608,2.316 -2.874,6.731 -4.846,14.5 -5.077,21.871 -0.241,7.673 -1.375,16.286 -7.466,20.958 -5.98,4.586 -15.114,3.362 -20.839,-1.537 -5.725,-4.9 -8.385,-12.643 -8.73,-20.171 -1.288,-28.149 13.742,-56.449 -0.939,-83.625 -1.19,-2.204 -2.853,-4.516 -5.328,-4.905 -2.324,-0.365 -4.618,1.201 -5.792,3.239 -1.175,2.038 -1.452,4.459 -1.605,6.807 -0.796,12.177 -0.197,24.484 1.7,36.539 C 95.566,-19.946 91.799,-1.965 77.381,9.091 70.994,13.988 66.385,17 58.683,14.668 46.79,11.067 36.119,-2.679 34.185,-14.954 c -0.758,-4.814 -1.019,-9.753 -2.601,-14.364 -1.582,-4.61 -4.805,-8.998 -9.466,-10.422 -5.807,-1.772 -12.224,1.679 -15.622,6.709 C 3.097,-28 2.108,-21.75 1.589,-15.702 1.232,-11.54 0.971,-5.726 0,0"/></g><g transform="translate(645.8915,1109.954)" id="g60"><path id="path62" style="fill:#46ac89;fill-opacity:1;fill-rule:nonzero;stroke:none" d="m 0,0 c 2.074,5.014 5.726,9.932 11.403,14.75 26.679,22.638 61.399,35.598 96.387,35.976 34.987,0.379 69.98,-11.826 97.142,-33.882 7.626,-6.192 19.198,-15.78 21.206,-25.97 2.046,-10.38 -5.321,-23.616 -8.212,-33.275 -4.408,-14.727 -9.021,-29.804 -7.477,-45.371 2.007,-20.235 14.05,-41.108 5.702,-59.65 -0.579,-1.285 -1.293,-2.579 -2.454,-3.379 -2.902,-1.998 -7.147,0.221 -8.621,3.422 -1.474,3.2 -1.056,6.902 -0.835,10.419 0.589,9.364 -0.454,18.829 -3.068,27.84 -1.9,6.55 -5.41,13.597 -11.957,15.505 -6.49,1.891 -13.176,-2.071 -18.359,-6.411 -7.922,-6.631 -17.736,-15.544 -27.806,-7.26 -4.029,3.314 -6.627,8.001 -9.763,12.17 -4.739,6.299 -12.269,11.926 -19.912,10.001 -11.746,-2.959 -13.791,-20.402 -24.809,-25.435 -6.3,-2.878 -14.089,-0.911 -20.228,-4.118 -8.265,-4.318 -11.734,-24.565 -22.486,-22.263 -6.586,1.41 -10.653,11.899 -11.692,17.531 -1.567,8.496 -0.39,17.272 -1.401,25.852 -1.97,16.734 -11.951,31.242 -20.706,45.64 C 1.861,-31.144 -6.26,-15.135 0,0"/></g><g transform="translate(775.5791,855.2574)" id="g64"><path id="path66" style="fill:#37775d;fill-opacity:1;fill-rule:nonzero;stroke:none" d="m 0,0 c -0.048,-1.037 0.593,-1.82 1.587,-3.734 5.532,-10.652 8.591,-23.425 10.67,-35.167 4.279,-24.178 2.878,-49.387 -4.348,-72.87 -1.04,-3.38 -2.923,-9.982 -0.817,-13.485 8.279,-13.766 22.767,12.789 30.813,14.488 2.854,0.603 5.812,-0.04 8.636,-0.772 6.436,-1.67 12.83,-3.828 19.473,-4.127 6.643,-0.3 13.786,1.585 18.043,6.694 1.96,2.353 3.191,5.234 5.068,7.654 4.966,6.406 14.621,8.625 21.886,5.03 12.029,-5.953 21.942,-25.539 37.77,-16.076 5.319,3.181 9.645,5.474 15.096,0.48 2.625,-2.405 4.191,-5.808 4.857,-9.305 2.315,-12.138 -4.625,-24.439 -5.347,-36.515 -0.529,-8.848 -0.561,-18.198 3.41,-26.352 1.532,-3.146 4.504,-9.046 9.689,-9.689 3.379,-0.42 7.057,1.473 8.997,4.152 4.528,6.256 -1.287,15.609 -4.152,25.607 -4.098,14.294 3.819,17.259 8.019,46.297 1.908,13.191 4.148,34.031 3.019,53.511 -0.938,16.18 -5.006,39.754 -20.036,62.831 -3.882,5.96 -22.329,32.885 -58.134,42.909 -24.987,6.994 -45.698,2.196 -54.675,0 C 50.921,39.456 34.285,35.188 17.999,21.49 13.294,17.533 8.993,13.099 5.169,8.285 3.74,6.487 2.088,4.6 0.979,2.581 0.329,1.396 0.03,0.648 0,0"/></g></g></g><text id="text70" style="font-variant: normal; font-weight: 600; font-stretch: normal; font-size: 110px; font-family: &quot;Poppins SemiBold&quot;; writing-mode: lr-tb; fill: rgb(255, 255, 255); fill-opacity: 1; fill-rule: nonzero; stroke: none; white-space: pre;" transform="matrix(1,0,0,-1,632.6611,788.8076)"><tspan id="tspan68" y="0" x="0">£</tspan></text><text id="text74" style="font-variant: normal; font-weight: 600; font-stretch: normal; font-size: 100px; font-family: &quot;Poppins SemiBold&quot;; writing-mode: lr-tb; fill: rgb(255, 255, 255); fill-opacity: 1; fill-rule: nonzero; stroke: none; white-space: pre;" transform="matrix(1,0,0,-1,735.4331,896.7334)"><tspan id="tspan72" y="0" x="0">$</tspan></text><text id="text78" style="font-variant: normal; font-weight: bold; font-stretch: normal; font-size: 110px; font-family: Thonburi; writing-mode: lr-tb; fill: rgb(241, 242, 242); fill-opacity: 1; fill-rule: nonzero; stroke: none; white-space: pre;" transform="matrix(1,0,0,-1,830.3345,793.7744)"><tspan id="tspan76" y="0" x="0">Є</tspan></text><text id="text82" style="font-variant: normal; font-weight: normal; font-stretch: normal; font-size: 110px; font-family: Inter; writing-mode: lr-tb; fill: rgb(255, 255, 255); fill-opacity: 1; fill-rule: nonzero; stroke: none; white-space: pre;" transform="matrix(1,0,0,-1,726.7145,1054.3644)"><tspan id="tspan80" y="0" x="0">₹</tspan></text><g id="g84"><g clip-path="url(#clipPath90)" id="g86"><g transform="translate(642.7408,1124.4736)" id="g92"><path id="path94" style="fill:#373535;fill-opacity:1;fill-rule:nonzero;stroke:none" d="m 0,0 c 6.711,7.253 48.24,50.683 113.428,50.001 7.654,-0.08 55.486,-1.274 95.835,-35.649 8.599,-7.326 14.914,-14.503 19.219,-19.942 0.304,7.619 1.227,49.446 -31.256,83.832 -5.324,5.635 -32.087,32.817 -75.928,35.649 -5.813,0.376 -51.376,2.577 -86.575,-31.482 C 13.118,61.504 5.677,36.865 3.241,26.852 0.621,16.085 0.017,6.735 0,0"/></g><g transform="translate(868.1619,1175.2311)" id="g96"><path id="path98" style="fill:#373535;fill-opacity:1;fill-rule:nonzero;stroke:none" d="m 0,0 125.579,9.007 c 20.887,-13.974 34.667,-26.215 42.243,-35.286 L 10.985,-54.964 C 12.986,-34.583 9.011,-16.376 0,0"/></g></g></g><text id="text102" style="font-variant: normal; font-weight: 900; font-stretch: normal; font-size: 240px; font-family: &quot;Poppins Black&quot;; writing-mode: lr-tb; fill: rgb(43, 51, 50); fill-opacity: 1; fill-rule: nonzero; stroke: none; white-space: pre;" transform="matrix(1,0,0,-1,316.4531,429.3447)"><tspan id="tspan100" y="0" x="0 150 330.72 519.84003 708.96002">SCOOP</tspan></text></g></g></svg>