<svg version="1.2" xmlns="http://www.w3.org/2000/svg" viewBox="0 0 2372 1898" width="2372" height="1898">
	<title>5ae444a7-eeaf-4abe-a793-85d2e9e37cfe</title>
	<defs>
		<linearGradient id="g1" x2="1" gradientUnits="userSpaceOnUse" gradientTransform="matrix(247.125,-2163.787,288.311,32.928,1632.581,2575.614)">
			<stop offset="0" stop-color="#000000"/>
			<stop offset="1" stop-color="#00f1b9"/>
		</linearGradient>
		<linearGradient id="g2" x2="1" gradientUnits="userSpaceOnUse" gradientTransform="matrix(-154.343,-1615.018,222.363,-21.251,1872.742,2410.972)">
			<stop offset="0" stop-color="#000000"/>
			<stop offset="1" stop-color="#00f1b9"/>
		</linearGradient>
		<linearGradient id="g3" x2="1" gradientUnits="userSpaceOnUse" gradientTransform="matrix(-119.684,-728.323,186.42,-30.634,2130.077,2006.812)">
			<stop offset="0" stop-color="#000000"/>
			<stop offset="1" stop-color="#00f1b9"/>
		</linearGradient>
		<linearGradient id="g4" x2="1" gradientUnits="userSpaceOnUse" gradientTransform="matrix(180.695,-1077.802,221.473,37.13,1327.451,2233.508)">
			<stop offset="0" stop-color="#000000"/>
			<stop offset="1" stop-color="#00f1b9"/>
		</linearGradient>
	</defs>
	<style>
		.s0 { fill: url(#g1) } 
		.s1 { fill: #00f1b9 } 
		.s2 { fill: url(#g2) } 
		.s3 { fill: url(#g3) } 
		.s4 { fill: url(#g4) } 
	</style>
	<g id="Layer 1">
		<g id="&lt;Group&gt;">
			<g id="&lt;Clip Group&gt;">
				<g id="&lt;Group&gt;" style="mix-blend-mode: screen">
					<g id="&lt;Group&gt;">
						<path id="&lt;Mesh&gt;" class="s0" d="m1632.6 2575.6q13.2 0 13.2 0 0-82.3 0-82.3 0 0-13.2 0 0 0 0 82.3zm0-82.3q13.2 0 13.2 0 0-41.2 0-82.3 0 0-13.2 0 0 41.1 0 82.3zm0-82.3q13.2 0 13.2 0 0-41.2 0-82.3 0 0-13.2 0 0 41.1 0 82.3zm0-82.3q13.2 0 13.2 0 0-41.2 0-82.3 0 0-13.2 0 0 41.1 0 82.3zm0-82.3q13.2 0 13.2 0 0-41.2 0-82.3 0 0-13.2 0 0 41.1 0 82.3zm0-82.3q13.2 0 13.2 0 0-41.2 0-82.4 0 0-13.2 0 0 41.2 0 82.4zm0-82.4q13.2 0 13.2 0 0-41.1 0-82.3 0 0-13.2 0 0 41.2 0 82.3zm0-82.3q13.2 0 13.2 0 0-41.1 0-82.3 0 0-13.2 0 0 41.2 0 82.3zm0-82.3q13.2 0 13.2 0 0-41.1 0-82.3 0 0-13.2 0 0 41.2 0 82.3zm0-82.3q13.2 0 13.2 0 0-41.1 0-82.3 0 0-13.2 0 0 41.2 0 82.3zm0-82.3q13.2 0 13.2 0 0-41.2 0-82.3 0 0-13.2 0 0 41.1 0 82.3zm0-82.3q13.2 0 13.2 0 0-41.2 0-82.3 0 0-13.2 0 0 41.1 0 82.3zm0-82.3q13.2 0 13.2 0 0-41.2 0-82.3 0 0-13.2 0 0 41.1 0 82.3zm0-82.3q13.2 0 13.2 0 0-41.2 0-82.3 0 0-13.2 0 0 41.1 0 82.3zm0-82.3q13.2 0 13.2 0 0-88.9 0-177.8 0 0-13.2-13.2 0 95.5 0 191zm0-191.1q0 0.1 0 0.1 13.2 13.2 13.2 13.2v-0.1h0.1q0 0-13.2-13.2-0.1 0-0.1 0zm0.1 0q13.2 13.2 13.2 13.2 10.9 0 21.9 0 0 0-5.9-13.2-14.6 0-29.2 0zm29.2 0q5.9 13.2 5.9 13.2 10.2 0 20.4 0 0 0 0-13.2-13.1 0-26.3 0zm26.3 0q0 13.2 0 13.2 14.6 0 29.3 0 0 0 0-13.2-14.7 0-29.3 0zm29.3 0q0 13.2 0 13.2 29.2 0 58.4 0 0 0 0-13.2-29.2 0-58.4 0zm58.4 0q0 13.2 0 13.2 29.2 0 58.5 0 0 0 0-13.2-29.3 0-58.5 0zm58.5 0q0 13.2 0 13.2 22.6 0 45.3 0 0 0-13.2-13.2-16.1 0-32.1 0zm32.1 0q13.2 13.2 13.2 13.2 0 0-13.2-13.2zm0 0q13.2 13.2 13.2 13.2 0-28 0-55.9 0 0-13.2 0 0 21.4 0 42.7zm0-42.7q13.2 0 13.2 0 0-34.5 0-69 0 0-13.2 0 0 34.5 0 69zm0-69q13.2 0 13.2 0 0-34.5 0-69 0 0-13.2 0 0 34.5 0 69zm0-69q13.2 0 13.2 0 0-34.6 0-69.1 0 0-13.2 0 0 34.5 0 69.1zm0-69.1q13.2 0 13.2 0 0-17.8 0-35.6 0 0-13.2 0 0 17.8 0 35.6zm0-35.6q13.2 0 13.2 0 0-17.9 0-35.7 0 0-13.2 0 0 17.8 0 35.7zm0-35.7q13.2 0 13.2 0 0-35.6 0-71.3 0 0-13.2 0 0 35.7 0 71.3zm0-71.3q13.2 0 13.2 0 0-71.3 0-142.7 0 0-13.2 0 0 71.4 0 142.7zm0-142.7q13.2 0 13.2 0 0-71.3 0-142.6 0 0-13.2 0 0 71.3 0 142.6zm0-142.6q13.2 0 13.2 0 0 0 0-142.7 0 0-13.2 0 0 142.7 0 142.7zm-220.7 2021.1q6.5 0 13.1 0 0-82.3 0-82.3-6.6 0-13.1 0 0 0 0 82.3zm0-82.3q6.5 0 13.1 0 0-41.2 0-82.3-6.6 0-13.1 0 0 41.1 0 82.3zm0-82.3q6.5 0 13.1 0 0-41.2 0-82.3-6.6 0-13.1 0 0 41.1 0 82.3zm0-82.3q6.5 0 13.1 0 0-41.2 0-82.3-6.6 0-13.1 0 0 41.1 0 82.3zm0-82.3q6.5 0 13.1 0 0-41.2 0-82.3-6.6 0-13.1 0 0 41.1 0 82.3zm0-82.3q6.5 0 13.1 0 0-41.2 0-82.4-6.6 0-13.1 0 0 41.2 0 82.4zm0-82.4q6.5 0 13.1 0 0-41.1 0-82.3-6.6 0-13.1 0 0 41.2 0 82.3zm0-82.3q6.5 0 13.1 0 0-41.1 0-82.3-6.6 0-13.1 0 0 41.2 0 82.3zm0-82.3q6.5 0 13.1 0 0-41.1 0-82.3-6.6 0-13.1 0 0 41.2 0 82.3zm0-82.3q6.5 0 13.1 0 0-41.1 0-82.3-6.6 0-13.1 0 0 41.2 0 82.3zm0-82.3q6.5 0 13.1 0 0-41.2 0-82.3-6.6 0-13.1 0 0 41.1 0 82.3zm0-82.3q6.5 0 13.1 0 0-41.2 0-82.3-6.6 0-13.1 0 0 41.1 0 82.3zm0-82.3q6.5 0 13.1 0 0-41.2 0-82.3-6.6 0-13.1 0 0 41.1 0 82.3zm0-82.3q6.5 0 13.1 0 0-41.2 0-82.3-6.6 0-13.1 0 0 41.1 0 82.3zm0-82.3q6.5 0 13.1 0 0-82.4 0-164.7-6.6-6.5-13.1-13.1 0 88.9 0 177.8zm0-177.9v0.1q6.5 6.6 13.1 13.1h0.1q-6.6-6.6-13.1-13.2zm0.1 0q6.5 6.6 13.1 13.2 7.3 0 14.6 0-2.9-6.6-5.8-13.2-11 0-21.9 0zm21.9 0q2.9 6.6 5.8 13.2 7.3 0 14.6 0 0-6.6 0-13.2-10.2 0-20.4 0zm20.4 0q0 6.6 0 13.2 14.6 0 29.3 0 0-6.6 0-13.2-14.7 0-29.3 0zm29.3 0q0 6.6 0 13.2 29.2 0 58.4 0 0-6.6 0-13.2-29.2 0-58.4 0zm58.4 0q0 6.6 0 13.2 29.2 0 58.5 0 0-6.6 0-13.2-29.3 0-58.5 0zm58.5 0q0 6.6 0 13.2 29.2 0 58.4 0-6.6-6.6-13.1-13.2-22.7 0-45.3 0zm45.3 0q6.5 6.6 13.1 13.2h0.1v-0.1q-6.6-6.6-13.2-13.1zm0-0.1q6.6 6.6 13.2 13.2 0-34.5 0-69-6.6 0-13.2 0 0 27.9 0 55.8zm0-55.8q6.6 0 13.2 0 0-34.6 0-69.1-6.6 0-13.2 0 0 34.5 0 69.1zm0-69.1q6.6 0 13.2 0 0-34.5 0-69-6.6 0-13.2 0 0 34.5 0 69zm0-69q6.6 0 13.2 0 0-34.5 0-69-6.6 0-13.2 0 0 34.5 0 69zm0-69q6.6 0 13.2 0 0-17.8 0-35.7-6.6 0-13.2 0 0 17.9 0 35.7zm0-35.7q6.6 0 13.2 0 0-17.8 0-35.6-6.6 0-13.2 0 0 17.8 0 35.6zm0-35.6q6.6 0 13.2 0 0-35.7 0-71.3-6.6 0-13.2 0 0 35.6 0 71.3zm0-71.3q6.6 0 13.2 0 0-71.4 0-142.7-6.6 0-13.2 0 0 71.3 0 142.7zm0-142.7q6.6 0 13.2 0 0-71.3 0-142.7-6.6 0-13.2 0 0 71.4 0 142.7zm0-142.7q6.6 0 13.2 0 0 0 0-142.6-6.6 0-13.2 0 0 142.6 0 142.6zm-220.8 2021.2q6.6 0 13.2 0 0-82.3 0-82.3-6.6 0-13.2 0 0 0 0 82.3zm0-82.3q6.6 0 13.2 0 0-41.2 0-82.3-6.6 0-13.2 0 0 41.1 0 82.3zm0-82.3q6.6 0 13.2 0 0-41.2 0-82.4-6.6 0-13.2 0 0 41.2 0 82.4zm0-82.4q6.6 0 13.2 0 0-41.1 0-82.3-6.6 0-13.2 0 0 41.2 0 82.3zm0-82.3q6.6 0 13.2 0 0-41.1 0-82.3-6.6 0-13.2 0 0 41.2 0 82.3zm0-82.3q6.6 0 13.2 0 0-41.1 0-82.3-6.6 0-13.2 0 0 41.2 0 82.3zm0-82.3q6.6 0 13.2 0 0-41.1 0-82.3-6.6 0-13.2 0 0 41.2 0 82.3zm0-82.3q6.6 0 13.2 0 0-41.2 0-82.3-6.6 0-13.2 0 0 41.1 0 82.3zm0-82.3q6.6 0 13.2 0 0-41.2 0-82.3-6.6 0-13.2 0 0 41.1 0 82.3zm0-82.3q6.6 0 13.2 0 0-41.2 0-82.3-6.6 0-13.2 0 0 41.1 0 82.3zm0-82.3q6.6 0 13.2 0 0-41.2 0-82.3-6.6 0-13.2 0 0 41.1 0 82.3zm0-82.3q6.6 0 13.2 0 0-41.2 0-82.4-6.6 0-13.2 0 0 41.2 0 82.4zm0-82.4q6.6 0 13.2 0 0-41.1 0-82.3-6.6 0-13.2 0 0 41.2 0 82.3zm0-82.3q6.6 0 13.2 0 0-41.1 0-82.3-6.6 0-13.2 0 0 41.2 0 82.3zm0-82.3q6.6 0 13.2 0 0-75.7 0-151.5-6.6-6.5-13.2-13.1 0 82.3 0 164.6zm0-164.7v0.1q6.6 6.6 13.2 13.1-6.5-6.6-13.1-13.2zm0.1 0q6.5 6.6 13.1 13.2 3.7 0 7.3 0-2.9-6.6-5.8-13.2-7.3 0-14.6 0zm14.6 0q2.9 6.6 5.8 13.2 4.4 0 8.8 0 0-6.6 0-13.2-7.3 0-14.6 0zm14.6 0q0 6.6 0 13.2 14.6 0 29.2 0 0-6.6 0-13.2-14.6 0-29.2 0zm29.2 0q0 6.6 0 13.2 29.2 0 58.5 0 0-6.6 0-13.2-29.3 0-58.5 0zm58.5 0q0 6.6 0 13.2 29.2 0 58.4 0 0-6.6 0-13.2-29.2 0-58.4 0zm58.4 0q0 6.6 0 13.2 35.8 0 71.6 0-6.5-6.6-13.1-13.2-29.2 0-58.5 0zm58.5 0q6.6 6.6 13.1 13.2 0.1 0 0.1 0v-0.1q-6.6-6.6-13.2-13.1zm0-0.1q6.6 6.6 13.2 13.1 0-41 0-82.1-6.6 0-13.2 0 0 34.5 0 69zm0-69q6.6 0 13.2 0 0-34.5 0-69-6.6 0-13.2 0 0 34.5 0 69zm0-69q6.6 0 13.2 0 0-34.5 0-69-6.6 0-13.2 0 0 34.5 0 69zm0-69q6.6 0 13.2 0 0-34.5 0-69.1-6.6 0-13.2 0 0 34.6 0 69.1zm0-69.1q6.6 0 13.2 0 0-17.8 0-35.6-6.6 0-13.2 0 0 17.8 0 35.6zm0-35.6q6.6 0 13.2 0 0-17.9 0-35.7-6.6 0-13.2 0 0 17.8 0 35.7zm0-35.7q6.6 0 13.2 0 0-35.6 0-71.3-6.6 0-13.2 0 0 35.7 0 71.3zm0-71.3q6.6 0 13.2 0 0-71.3 0-142.7-6.6 0-13.2 0 0 71.4 0 142.7zm0-142.7q6.6 0 13.2 0 0-71.3 0-142.6-6.6 0-13.2 0 0 71.3 0 142.6zm0-142.6q6.6 0 13.2 0 0 0 0-142.7-6.6 0-13.2 0 0 142.7 0 142.7zm-220.7 2021.1q0 0 13.1 0 0-82.3 0-82.3-13.1 0-13.1 0 0 0 0 82.3zm0-82.3q0 0 13.1 0 0-41.2 0-82.3-13.1 0-13.1 0 0 41.1 0 82.3zm0-82.3q0 0 13.1 0 0-41.2 0-82.3-13.1 0-13.1 0 0 41.1 0 82.3zm0-82.3q0 0 13.1 0 0-41.2 0-82.3-13.1 0-13.1 0 0 41.1 0 82.3zm0-82.3q0 0 13.1 0 0-41.2 0-82.3-13.1 0-13.1 0 0 41.1 0 82.3zm0-82.3q0 0 13.1 0 0-41.2 0-82.4-13.1 0-13.1 0 0 41.2 0 82.4zm0-82.4q0 0 13.1 0 0-41.1 0-82.3-13.1 0-13.1 0 0 41.2 0 82.3zm0-82.3q0 0 13.1 0 0-41.1 0-82.3-13.1 0-13.1 0 0 41.2 0 82.3zm0-82.3q0 0 13.1 0 0-41.1 0-82.3-13.1 0-13.1 0 0 41.2 0 82.3zm0-82.3q0 0 13.1 0 0-41.1 0-82.3-13.1 0-13.1 0 0 41.2 0 82.3zm0-82.3q0 0 13.1 0 0-41.2 0-82.3-13.1 0-13.1 0 0 41.1 0 82.3zm0-82.3q0 0 13.1 0 0-41.2 0-82.3-13.1 0-13.1 0 0 41.1 0 82.3zm0-82.3q0 0 13.1 0 0-41.2 0-82.3-13.1 0-13.1 0 0 41.1 0 82.3zm0-82.3q0 0 13.1 0 0-41.2 0-82.3-13.1 0-13.1 0 0 41.1 0 82.3zm0-82.3q0 0 13.1 0 0-69.2 0-138.4-13.1-13.1-13.1-13.1 0 75.7 0 151.5zm0-151.6v0.1q0 0 13.1 13.1-13.1-13.2-13.1-13.2zm0 0q0 0 13.2 13.2-5.9-13.2-5.9-13.2-3.6 0-7.3 0zm7.3 0q0 0 5.9 13.2 1.5 0 2.9 0 0-13.2 0-13.2-4.4 0-8.8 0zm8.8 0q0 0 0 13.2 14.6 0 29.3 0 0-13.2 0-13.2-14.7 0-29.3 0zm29.3 0q0 0 0 13.2 29.2 0 58.4 0 0-13.2 0-13.2-29.2 0-58.4 0zm58.4 0q0 0 0 13.2 29.2 0 58.5 0 0-13.2 0-13.2-29.3 0-58.5 0zm58.5 0q0 0 0 13.2 42.3 0 84.7 0-13.1-13.2-13.1-13.2-35.8 0-71.6 0zm71.7 0q-0.1 0-0.1 0 0 0 13.1 13.2 0.1 0 0.1 0 0 0 0-0.1-13.1-13.2-13.1-13.2zm0-0.1q0 0 13.1 13.2 0-47.7 0-95.3-13.1 0-13.1 0 0 41.1 0 82.1zm0-82.1q0 0 13.1 0 0-34.5 0-69-13.1 0-13.1 0 0 34.5 0 69zm0-69q0 0 13.1 0 0-34.5 0-69-13.1 0-13.1 0 0 34.5 0 69zm0-69q0 0 13.1 0 0-34.5 0-69.1-13.1 0-13.1 0 0 34.6 0 69.1zm0-69.1q0 0 13.1 0 0-17.8 0-35.6-13.1 0-13.1 0 0 17.8 0 35.6zm0-35.6q0 0 13.1 0 0-17.9 0-35.7-13.1 0-13.1 0 0 17.8 0 35.7zm0-35.7q0 0 13.1 0 0-35.6 0-71.3-13.1 0-13.1 0 0 35.7 0 71.3zm0-71.3q0 0 13.1 0 0-71.3 0-142.7-13.1 0-13.1 0 0 71.4 0 142.7zm0-142.7q0 0 13.1 0 0-71.3 0-142.6-13.1 0-13.1 0 0 71.3 0 142.6zm0-142.6q0 0 13.1 0 0 0 0-142.7-13.1 0-13.1 0 0 142.7 0 142.7z"/>
					</g>
					<g id="&lt;Group&gt;">
						<path id="&lt;Path&gt;" class="s1" d="m1984.9 438.7l-92-159.3-92 159.3z"/>
					</g>
				</g>
				<g id="&lt;Group&gt;" style="mix-blend-mode: screen">
					<g id="&lt;Group&gt;">
						<path id="&lt;Mesh&gt;" class="s2" d="m1872.7 2411q13.2 0 13.2 0 0-46.8 0-46.8 0 0-13.2 0 0 0 0 46.8zm0-46.8q13.2 0 13.2 0 0-23.4 0-46.7 0 0-13.2 0 0 23.3 0 46.7zm0-46.7q13.2 0 13.2 0 0-23.4 0-46.8 0 0-13.2 0 0 23.4 0 46.8zm0-46.8q13.2 0 13.2 0 0-23.4 0-46.7 0 0-13.2 0 0 23.3 0 46.7zm0-46.7q13.2 0 13.2 0 0-23.4 0-46.8 0 0-13.2 0 0 23.4 0 46.8zm0-46.8q13.2 0 13.2 0 0-23.3 0-46.7 0 0-13.2 0 0 23.4 0 46.7zm0-46.7q13.2 0 13.2 0 0-23.4 0-46.8 0 0-13.2 0 0 23.4 0 46.8zm0-46.8q13.2 0 13.2 0 0-23.3 0-46.7 0 0-13.2 0 0 23.4 0 46.7zm0-46.7q13.2 0 13.2 0 0-23.4 0-46.8 0 0-13.2 0 0 23.4 0 46.8zm0-46.8q13.2 0 13.2 0 0-23.3 0-46.7 0 0-13.2 0 0 23.4 0 46.7zm0-46.7q13.2 0 13.2 0 0-23.4 0-46.8 0 0-13.2 0 0 23.4 0 46.8zm0-46.8q13.2 0 13.2 0 0-23.3 0-46.7 0 0-13.2 0 0 23.4 0 46.7zm0-46.7q13.2 0 13.2 0 0-23.4 0-46.8 0 0-13.2 0 0 23.4 0 46.8zm0-46.8q13.2 0 13.2 0 0-23.3 0-46.7 0 0-13.2 0 0 23.4 0 46.7zm0-46.7q13.2 0 13.2 0 0-40.2 0-80.4 0 0-13.2 13.2 0 33.6 0 67.2zm0-67.2q13.2-13.2 13.2-13.2 0 0-13.2 13.2zm0 0q13.2-13.2 13.2-13.2-2.6 0-5.2 0 0 0-8 13.2zm0 0q8-13.2 8-13.2-2.7 0-5.3 0 0 0-2.7 13.2zm0 0q2.7-13.2 2.7-13.2-3.9 0-7.8 0 0 0 0 13.2 2.6 0 5.1 0zm-5.1 0q0-13.2 0-13.2-5.2 0-10.4 0 0 0 0 13.2 5.2 0 10.4 0zm-10.4 0q0-13.2 0-13.2-5.2 0-10.5 0 0 0 0 13.2 5.3 0 10.5 0zm-10.5 0q0-13.2 0-13.2-5.2 0-10.4 0 0 0 0 13.2 5.2 0 10.4 0zm-10.4 0q0-13.2 0-13.2-10.5 0-21 0 0 0 0 13.2 10.5 0 21 0zm-21 0q0-13.2 0-13.2-5.2 0-10.4 0 0 0 0 13.2 5.2 0 10.4 0zm-10.4 0q0-13.2 0-13.2-5.3 0-10.5 0 0 0 0 13.2 5.2 0 10.5 0zm-10.5 0q0-13.2 0-13.2-10.5 0-20.9 0 0 0 0 13.2 10.4 0 20.9 0zm-20.9 0q0-13.2 0-13.2-27.5 0-55 0 0 0-13.1 13.2 34 0 68.1 0zm-68.3 0q0.1 0 0.2 0 13.1-13.2 13.1-13.2h-0.1v-0.1q0 0-13.2 13.1 0 0.1 0 0.2zm0-0.2q13.2-13.1 13.2-13.1 0-20.4 0-40.8 0 0-13.2 0 0 27 0 53.9zm0-53.9q13.2 0 13.2 0 0-13.9 0-27.7 0 0-13.2 0 0 13.8 0 27.7zm0-27.7q13.2 0 13.2 0 0-27.7 0-55.3 0 0-13.2 0 0 27.6 0 55.3zm0-55.3q13.2 0 13.2 0 0-55.4 0-110.7 0 0-13.2 0 0 55.3 0 110.7zm0-110.7q13.2 0 13.2 0 0-55.3 0-110.7 0 0-13.2 0 0 55.4 0 110.7zm0-110.7q13.2 0 13.2 0 0-55.3 0-110.6 0 0-13.2 0 0 55.3 0 110.6zm0-110.6q13.2 0 13.2 0 0-13.3 0-26.5 0 0-13.2 0 0 13.2 0 26.5zm0-26.5q13.2 0 13.2 0 0-13.3 0-26.6 0 0-13.2 0 0 13.3 0 26.6zm0-26.6q13.2 0 13.2 0 0-26.5 0-53 0 0-13.2 0 0 26.5 0 53zm0-53q13.2 0 13.2 0 0-53 0-106 0 0-13.2 0 0 53 0 106zm0-106q13.2 0 13.2 0 0-53.1 0-106.1 0 0-13.2 0 0 53 0 106.1zm0-106.1q13.2 0 13.2 0 0 0 0-106 0 0-13.2 0 0 106 0 106zm180.7 1509q6.6 0 13.2 0 0-46.8 0-46.8-6.6 0-13.2 0 0 0 0 46.8zm0-46.8q6.6 0 13.2 0 0-23.4 0-46.7-6.6 0-13.2 0 0 23.3 0 46.7zm0-46.7q6.6 0 13.2 0 0-23.4 0-46.8-6.6 0-13.2 0 0 23.4 0 46.8zm0-46.8q6.6 0 13.2 0 0-23.4 0-46.7-6.6 0-13.2 0 0 23.3 0 46.7zm0-46.7q6.6 0 13.2 0 0-23.4 0-46.8-6.6 0-13.2 0 0 23.4 0 46.8zm0-46.8q6.6 0 13.2 0 0-23.3 0-46.7-6.6 0-13.2 0 0 23.4 0 46.7zm0-46.7q6.6 0 13.2 0 0-23.4 0-46.8-6.6 0-13.2 0 0 23.4 0 46.8zm0-46.8q6.6 0 13.2 0 0-23.3 0-46.7-6.6 0-13.2 0 0 23.4 0 46.7zm0-46.7q6.6 0 13.2 0 0-23.4 0-46.8-6.6 0-13.2 0 0 23.4 0 46.8zm0-46.8q6.6 0 13.2 0 0-23.3 0-46.7-6.6 0-13.2 0 0 23.4 0 46.7zm0-46.7q6.6 0 13.2 0 0-23.4 0-46.8-6.6 0-13.2 0 0 23.4 0 46.8zm0-46.8q6.6 0 13.2 0 0-23.3 0-46.7-6.6 0-13.2 0 0 23.4 0 46.7zm0-46.7q6.6 0 13.2 0 0-23.4 0-46.8-6.6 0-13.2 0 0 23.4 0 46.8zm0-46.8q6.6 0 13.2 0 0-23.3 0-46.7-6.6 0-13.2 0 0 23.4 0 46.7zm0-46.7q6.6 0 13.2 0 0-46.8 0-93.5-6.6 6.6-13.2 13.1 0 40.2 0 80.4zm0-80.4q6.6-6.5 13.2-13.1v-0.1h-0.1q-6.5 6.6-13.1 13.2zm0 0q6.5-6.6 13.1-13.2-5.2 0-10.5 0-3.9 6.6-7.9 13.2 2.6 0 5.3 0zm-5.3 0q4-6.6 7.9-13.2-5.2 0-10.4 0-1.4 6.6-2.7 13.2 2.6 0 5.2 0zm-5.2 0q1.3-6.6 2.7-13.2-5.3 0-10.5 0 0 6.6 0 13.2 3.9 0 7.8 0zm-7.8 0q0-6.6 0-13.2-5.2 0-10.5 0 0 6.6 0 13.2 5.3 0 10.5 0zm-10.5 0q0-6.6 0-13.2-5.2 0-10.4 0 0 6.6 0 13.2 5.2 0 10.4 0zm-10.4 0q0-6.6 0-13.2-5.2 0-10.5 0 0 6.6 0 13.2 5.3 0 10.5 0zm-10.5 0q0-6.6 0-13.2-10.4 0-20.9 0 0 6.6 0 13.2 10.5 0 20.9 0zm-20.9 0q0-6.6 0-13.2-5.2 0-10.5 0 0 6.6 0 13.2 5.3 0 10.5 0zm-10.5 0q0-6.6 0-13.2-5.2 0-10.4 0 0 6.6 0 13.2 5.2 0 10.4 0zm-10.4 0q0-6.6 0-13.2-10.5 0-20.9 0 0 6.6 0 13.2 10.4 0 20.9 0zm-20.9 0q0-6.6 0-13.2-21 0-41.9 0-6.6 6.6-13.1 13.2 27.5 0 55 0zm-55.1 0h0.1q6.5-6.6 13.1-13.2h-0.1v-0.1q-6.5 6.6-13.1 13.2zm0-0.1q6.6-6.6 13.1-13.2 0-13.8 0-27.6-6.5 0-13.1 0 0 20.4 0 40.8zm0-40.8q6.6 0 13.1 0 0-13.9 0-27.7-6.5 0-13.1 0 0 13.8 0 27.7zm0-27.7q6.6 0 13.1 0 0-27.7 0-55.3-6.5 0-13.1 0 0 27.6 0 55.3zm0-55.3q6.6 0 13.1 0 0-55.4 0-110.7-6.5 0-13.1 0 0 55.3 0 110.7zm0-110.7q6.6 0 13.1 0 0-55.3 0-110.7-6.5 0-13.1 0 0 55.4 0 110.7zm0-110.7q6.6 0 13.1 0 0-55.3 0-110.6-6.5 0-13.1 0 0 55.3 0 110.6zm0-110.6q6.6 0 13.1 0 0-13.3 0-26.5-6.5 0-13.1 0 0 13.2 0 26.5zm0-26.5q6.6 0 13.1 0 0-13.3 0-26.6-6.5 0-13.1 0 0 13.3 0 26.6zm0-26.6q6.6 0 13.1 0 0-26.5 0-53-6.5 0-13.1 0 0 26.5 0 53zm0-53q6.6 0 13.1 0 0-53 0-106-6.5 0-13.1 0 0 53 0 106zm0-106q6.6 0 13.1 0 0-53.1 0-106.1-6.5 0-13.1 0 0 53 0 106.1zm0-106.1q6.6 0 13.1 0 0 0 0-106-6.5 0-13.1 0 0 106 0 106zm180.7 1509q6.5 0 13.1 0 0-46.8 0-46.8-6.6 0-13.1 0 0 0 0 46.8zm0-46.8q6.5 0 13.1 0 0-23.4 0-46.7-6.6 0-13.1 0 0 23.3 0 46.7zm0-46.7q6.5 0 13.1 0 0-23.4 0-46.8-6.6 0-13.1 0 0 23.4 0 46.8zm0-46.8q6.5 0 13.1 0 0-23.3 0-46.7-6.6 0-13.1 0 0 23.4 0 46.7zm0-46.7q6.5 0 13.1 0 0-23.4 0-46.8-6.6 0-13.1 0 0 23.4 0 46.8zm0-46.8q6.5 0 13.1 0 0-23.3 0-46.7-6.6 0-13.1 0 0 23.4 0 46.7zm0-46.7q6.5 0 13.1 0 0-23.4 0-46.8-6.6 0-13.1 0 0 23.4 0 46.8zm0-46.8q6.5 0 13.1 0 0-23.3 0-46.7-6.6 0-13.1 0 0 23.4 0 46.7zm0-46.7q6.5 0 13.1 0 0-23.4 0-46.8-6.6 0-13.1 0 0 23.4 0 46.8zm0-46.8q6.5 0 13.1 0 0-23.3 0-46.7-6.6 0-13.1 0 0 23.4 0 46.7zm0-46.7q6.5 0 13.1 0 0-23.4 0-46.8-6.6 0-13.1 0 0 23.4 0 46.8zm0-46.8q6.5 0 13.1 0 0-23.3 0-46.7-6.6 0-13.1 0 0 23.4 0 46.7zm0-46.7q6.5 0 13.1 0 0-23.4 0-46.8-6.6 0-13.1 0 0 23.4 0 46.8zm0-46.8q6.5 0 13.1 0 0-23.3 0-46.7-6.6 0-13.1 0 0 23.4 0 46.7zm0-46.7q6.5 0 13.1 0 0-53.3 0-106.7-6.6 6.6-13.1 13.2 0 46.7 0 93.5zm0-93.6v0.1q6.5-6.6 13.1-13.2v-0.1q0 0-0.1 0-6.5 6.6-13.1 13.2zm-0.1 0q6.6-6.6 13.2-13.2-7.9 0-15.7 0-4 6.6-7.9 13.2 5.2 0 10.4 0zm-10.4 0q3.9-6.6 7.9-13.2-7.9 0-15.7 0-1.4 6.6-2.7 13.2 5.2 0 10.5 0zm-10.5 0q1.3-6.6 2.7-13.2-6.6 0-13.2 0 0 6.6 0 13.2 5.3 0 10.5 0zm-10.5 0q0-6.6 0-13.2-5.2 0-10.4 0 0 6.6 0 13.2 5.2 0 10.4 0zm-10.4 0q0-6.6 0-13.2-5.2 0-10.5 0 0 6.6 0 13.2 5.3 0 10.5 0zm-10.5 0q0-6.6 0-13.2-5.2 0-10.4 0 0 6.6 0 13.2 5.2 0 10.4 0zm-10.4 0q0-6.6 0-13.2-10.5 0-21 0 0 6.6 0 13.2 10.5 0 21 0zm-21 0q0-6.6 0-13.2-5.2 0-10.4 0 0 6.6 0 13.2 5.2 0 10.4 0zm-10.4 0q0-6.6 0-13.2-5.3 0-10.5 0 0 6.6 0 13.2 5.2 0 10.5 0zm-10.5 0q0-6.6 0-13.2-10.4 0-20.9 0 0 6.6 0 13.2 10.5 0 20.9 0zm-20.9 0q0-6.6 0-13.2-14.4 0-28.7 0-6.6 6.6-13.2 13.2 21 0 41.9 0zm-41.9 0q6.6-6.6 13.2-13.2-6.6 6.6-13.2 13.1zm0 0q6.6-6.6 13.2-13.2 0-7.2 0-14.5-6.6 0-13.2 0 0 13.9 0 27.7zm0-27.7q6.6 0 13.2 0 0-13.8 0-27.7-6.6 0-13.2 0 0 13.9 0 27.7zm0-27.7q6.6 0 13.2 0 0-27.6 0-55.3-6.6 0-13.2 0 0 27.7 0 55.3zm0-55.3q6.6 0 13.2 0 0-55.3 0-110.7-6.6 0-13.2 0 0 55.4 0 110.7zm0-110.7q6.6 0 13.2 0 0-55.3 0-110.6-6.6 0-13.2 0 0 55.3 0 110.6zm0-110.6q6.6 0 13.2 0 0-55.4 0-110.7-6.6 0-13.2 0 0 55.3 0 110.7zm0-110.7q6.6 0 13.2 0 0-13.3 0-26.5-6.6 0-13.2 0 0 13.2 0 26.5zm0-26.5q6.6 0 13.2 0 0-13.3 0-26.5-6.6 0-13.2 0 0 13.2 0 26.5zm0-26.5q6.6 0 13.2 0 0-26.5 0-53.1-6.6 0-13.2 0 0 26.6 0 53.1zm0-53.1q6.6 0 13.2 0 0-53 0-106-6.6 0-13.2 0 0 53 0 106zm0-106q6.6 0 13.2 0 0-53 0-106.1-6.6 0-13.2 0 0 53.1 0 106.1zm0-106.1q6.6 0 13.2 0 0 0 0-106-6.6 0-13.2 0 0 106 0 106zm180.7 1509q0 0 13.1 0 0-46.7 0-46.7-13.1 0-13.1 0 0 0 0 46.7zm0-46.7q0 0 13.1 0 0-23.4 0-46.8-13.1 0-13.1 0 0 23.4 0 46.8zm0-46.8q0 0 13.1 0 0-23.4 0-46.7-13.1 0-13.1 0 0 23.3 0 46.7zm0-46.7q0 0 13.1 0 0-23.4 0-46.8-13.1 0-13.1 0 0 23.4 0 46.8zm0-46.8q0 0 13.1 0 0-23.4 0-46.7-13.1 0-13.1 0 0 23.3 0 46.7zm0-46.7q0 0 13.1 0 0-23.4 0-46.8-13.1 0-13.1 0 0 23.4 0 46.8zm0-46.8q0 0 13.1 0 0-23.4 0-46.7-13.1 0-13.1 0 0 23.3 0 46.7zm0-46.7q0 0 13.1 0 0-23.4 0-46.8-13.1 0-13.1 0 0 23.4 0 46.8zm0-46.8q0 0 13.1 0 0-23.4 0-46.7-13.1 0-13.1 0 0 23.3 0 46.7zm0-46.7q0 0 13.1 0 0-23.4 0-46.8-13.1 0-13.1 0 0 23.4 0 46.8zm0-46.8q0 0 13.1 0 0-23.4 0-46.7-13.1 0-13.1 0 0 23.3 0 46.7zm0-46.7q0 0 13.1 0 0-23.4 0-46.8-13.1 0-13.1 0 0 23.4 0 46.8zm0-46.8q0 0 13.1 0 0-23.4 0-46.7-13.1 0-13.1 0 0 23.3 0 46.7zm0-46.7q0 0 13.1 0 0-23.4 0-46.8-13.1 0-13.1 0 0 23.4 0 46.8zm0-46.8q0 0 13.1 0 0-59.9 0-119.8-13.1 13.2-13.1 13.2 0 53.3 0 106.6zm0-106.7v0.1q0 0 13.1-13.2 0 0 0-0.1 0 0-0.1 0-13.1 13.2-13.1 13.2 0 0 0.1 0zm-0.1 0q0 0 13.1-13.2-10.4 0-20.9 0-7.9 13.2-7.9 13.2 7.8 0 15.7 0zm-15.7 0q0 0 7.9-13.2-10.5 0-20.9 0-2.7 13.2-2.7 13.2 7.8 0 15.7 0zm-15.7 0q0 0 2.7-13.2-7.9 0-15.9 0 0 13.2 0 13.2 6.6 0 13.2 0zm-13.2 0q0 0 0-13.2-5.2 0-10.4 0 0 13.2 0 13.2 5.2 0 10.4 0zm-10.4 0q0 0 0-13.2-5.2 0-10.5 0 0 13.2 0 13.2 5.3 0 10.5 0zm-10.5 0q0 0 0-13.2-5.2 0-10.4 0 0 13.2 0 13.2 5.2 0 10.4 0zm-10.4 0q0 0 0-13.2-10.5 0-21 0 0 13.2 0 13.2 10.5 0 21 0zm-21 0q0 0 0-13.2-5.2 0-10.4 0 0 13.2 0 13.2 5.2 0 10.4 0zm-10.4 0q0 0 0-13.2-5.3 0-10.5 0 0 13.2 0 13.2 5.2 0 10.5 0zm-10.5 0q0 0 0-13.2-10.4 0-20.9 0 0 13.2 0 13.2 10.5 0 20.9 0zm-20.9 0q0 0 0-13.2-7.8 0-15.6 0-13.1 13.2-13.1 13.2 14.3 0 28.7 0zm-28.7 0q0 0 13.1-13.2-13.1 13.1-13.1 13.1zm0 0q0 0 13.1-13.1 0-0.7 0-1.4-13.1 0-13.1 0 0 7.2 0 14.5zm0-14.5q0 0 13.1 0 0-13.9 0-27.7-13.1 0-13.1 0 0 13.8 0 27.7zm0-27.7q0 0 13.1 0 0-27.7 0-55.3-13.1 0-13.1 0 0 27.6 0 55.3zm0-55.3q0 0 13.1 0 0-55.4 0-110.7-13.1 0-13.1 0 0 55.3 0 110.7zm0-110.7q0 0 13.1 0 0-55.3 0-110.7-13.1 0-13.1 0 0 55.4 0 110.7zm0-110.7q0 0 13.1 0 0-55.3 0-110.6-13.1 0-13.1 0 0 55.3 0 110.6zm0-110.6q0 0 13.1 0 0-13.3 0-26.5-13.1 0-13.1 0 0 13.2 0 26.5zm0-26.5q0 0 13.1 0 0-13.3 0-26.6-13.1 0-13.1 0 0 13.3 0 26.6zm0-26.6q0 0 13.1 0 0-26.5 0-53-13.1 0-13.1 0 0 26.5 0 53zm0-53q0 0 13.1 0 0-53 0-106-13.1 0-13.1 0 0 53 0 106zm0-106q0 0 13.1 0 0-53.1 0-106.1-13.1 0-13.1 0 0 53 0 106.1zm0-106.1q0 0 13.1 0 0 0 0-106-13.1 0-13.1 0 0 106 0 106z"/>
					</g>
					<g id="&lt;Group&gt;">
						<path id="&lt;Path&gt;" class="s1" d="m1823.6 822.9l-92-159.3-92 159.3z"/>
					</g>
				</g>
				<g id="&lt;Group&gt;" style="mix-blend-mode: screen">
					<g id="&lt;Group&gt;">
						<path id="&lt;Mesh&gt;" class="s3" d="m2130.1 2006.8q13.2 0 13.2 0 0-18.4 0-18.4 0 0-13.2 0 0 0 0 18.4zm0-18.4q13.2 0 13.2 0 0-9.2 0-18.4 0 0-13.2 0 0 9.2 0 18.4zm0-18.4q13.2 0 13.2 0 0-9.2 0-18.4 0 0-13.2 0 0 9.2 0 18.4zm0-18.4q13.2 0 13.2 0 0-9.2 0-18.4 0 0-13.2 0 0 9.2 0 18.4zm0-18.4q13.2 0 13.2 0 0-9.2 0-18.4 0 0-13.2 0 0 9.2 0 18.4zm0-18.4q13.2 0 13.2 0 0-9.2 0-18.4 0 0-13.2 0 0 9.2 0 18.4zm0-18.4q13.2 0 13.2 0 0-9.2 0-18.4 0 0-13.2 0 0 9.2 0 18.4zm0-18.4q13.2 0 13.2 0 0-9.3 0-18.5 0 0-13.2 0 0 9.2 0 18.5zm0-18.5q13.2 0 13.2 0 0-9.2 0-18.4 0 0-13.2 0 0 9.2 0 18.4zm0-18.4q13.2 0 13.2 0 0-9.2 0-18.4 0 0-13.2 0 0 9.2 0 18.4zm0-18.4q13.2 0 13.2 0 0-9.2 0-18.4 0 0-13.2 0 0 9.2 0 18.4zm0-18.4q13.2 0 13.2 0 0-9.2 0-18.4 0 0-13.2 0 0 9.2 0 18.4zm0-18.4q13.2 0 13.2 0 0-9.2 0-18.4 0 0-13.2 0 0 9.2 0 18.4zm0-18.4q13.2 0 13.2 0 0-9.2 0-18.4 0 0-13.2 0 0 9.2 0 18.4zm0-18.4q13.2 0 13.2 0 0-11.8 0-23.7 0 0-13.2 13.2 0 5.2 0 10.5zm0-10.5q13.2-13.2 13.2-13.2h-0.1q0 0-13.1 13.2zm0 0q13.1-13.2 13.1-13.2-2.1 0-4.1 0 0 0-9 13.2zm0 0q9-13.2 9-13.2-2.1 0-4.2 0 0 0-4.8 13.2zm0 0q4.8-13.2 4.8-13.2-2 0-4.1 0 0 0-0.7 13.2zm0 0q0.7-13.2 0.7-13.2-3.8 0-7.6 0 0 0 0 13.2 3.4 0 6.9 0zm-6.9 0q0-13.2 0-13.2-4.2 0-8.3 0 0 0 0 13.2 4.1 0 8.3 0zm-8.3 0q0-13.2 0-13.2-4.2 0-8.3 0 0 0 0 13.2 4.1 0 8.3 0zm-8.3 0q0-13.2 0-13.2-8.3 0-16.6 0 0 0 0 13.2 8.3 0 16.6 0zm-16.6 0q0-13.2 0-13.2-4.1 0-8.3 0 0 0 0 13.2 4.2 0 8.3 0zm-8.3 0q0-13.2 0-13.2-4.1 0-8.3 0 0 0 0 13.2 4.2 0 8.3 0zm-8.3 0q0-13.2 0-13.2-8.3 0-16.6 0 0 0 0 13.2 8.3 0 16.6 0zm-16.6 0q0-13.2 0-13.2-23.1 0-46.3 0 0 0-13.2 13.2 29.8 0 59.5 0zm-59.6 0q0.1 0 0.1 0 13.2-13.2 13.2-13.2-0.1 0-0.1 0v-0.1q0 0-13.2 13.1 0 0.1 0 0.2zm0-0.2q13.2-13.1 13.2-13.1 0-10.7 0-21.5 0 0-13.2 6 0 14.3 0 28.6zm0-28.6q13.2-6 13.2-6 0-10.1 0-20.2 0 0-13.2 0 0 13.1 0 26.2zm0-26.2q13.2 0 13.2 0 0-14.3 0-28.6 0 0-13.2 0 0 14.3 0 28.6zm0-28.6q13.2 0 13.2 0 0-28.6 0-57.2 0 0-13.2 0 0 28.6 0 57.2zm0-57.2q13.2 0 13.2 0 0-28.6 0-57.2 0 0-13.2 0 0 28.6 0 57.2zm0-57.2q13.2 0 13.2 0 0-28.6 0-57.2 0 0-13.2 0 0 28.6 0 57.2zm0-57.2q13.2 0 13.2 0 0-6.4 0-12.8 0 0-13.2 0 0 6.4 0 12.8zm0-12.8q13.2 0 13.2 0 0-6.4 0-12.8 0 0-13.2 0 0 6.4 0 12.8zm0-12.8q13.2 0 13.2 0 0-12.8 0-25.6 0 0-13.2 0 0 12.8 0 25.6zm0-25.6q13.2 0 13.2 0 0-25.6 0-51.2 0 0-13.2 0 0 25.6 0 51.2zm0-51.2q13.2 0 13.2 0 0-25.7 0-51.3 0 0-13.2 0 0 25.6 0 51.3zm0-51.3q13.2 0 13.2 0 0 0 0-51.2 0 0-13.2 0 0 51.2 0 51.2zm146.1 677.1q6.5 0 13.1 0 0-18.4 0-18.4-6.6 0-13.1 0 0 0 0 18.4zm0-18.4q6.5 0 13.1 0 0-9.2 0-18.4-6.6 0-13.1 0 0 9.2 0 18.4zm0-18.4q6.5 0 13.1 0 0-9.2 0-18.4-6.6 0-13.1 0 0 9.2 0 18.4zm0-18.4q6.5 0 13.1 0 0-9.2 0-18.4-6.6 0-13.1 0 0 9.2 0 18.4zm0-18.4q6.5 0 13.1 0 0-9.2 0-18.4-6.6 0-13.1 0 0 9.2 0 18.4zm0-18.4q6.5 0 13.1 0 0-9.2 0-18.4-6.6 0-13.1 0 0 9.2 0 18.4zm0-18.4q6.5 0 13.1 0 0-9.2 0-18.4-6.6 0-13.1 0 0 9.2 0 18.4zm0-18.4q6.5 0 13.1 0 0-9.3 0-18.5-6.6 0-13.1 0 0 9.2 0 18.5zm0-18.5q6.5 0 13.1 0 0-9.2 0-18.4-6.6 0-13.1 0 0 9.2 0 18.4zm0-18.4q6.5 0 13.1 0 0-9.2 0-18.4-6.6 0-13.1 0 0 9.2 0 18.4zm0-18.4q6.5 0 13.1 0 0-9.2 0-18.4-6.6 0-13.1 0 0 9.2 0 18.4zm0-18.4q6.5 0 13.1 0 0-9.2 0-18.4-6.6 0-13.1 0 0 9.2 0 18.4zm0-18.4q6.5 0 13.1 0 0-9.2 0-18.4-6.6 0-13.1 0 0 9.2 0 18.4zm0-18.4q6.5 0 13.1 0 0-9.2 0-18.4-6.6 0-13.1 0 0 9.2 0 18.4zm0-18.4q6.5 0 13.1 0 0-18.4 0-36.8-6.6 6.5-13.1 13.1 0 11.9 0 23.7zm0-23.7q6.5-6.6 13.1-13.1v-0.1q-6.6 6.6-13.2 13.2zm0 0q6.6-6.6 13.1-13.2-4.1 0-8.3 0-4.5 6.6-9 13.2 2.1 0 4.2 0zm-4.2 0q4.5-6.6 9-13.2-4.1 0-8.3 0-2.4 6.6-4.8 13.2 2.1 0 4.1 0zm-4.1 0q2.4-6.6 4.8-13.2-4.1 0-8.3 0-0.3 6.6-0.7 13.2 2.1 0 4.2 0zm-4.2 0q0.4-6.6 0.7-13.2-4.1 0-8.3 0 0 6.6 0 13.2 3.8 0 7.6 0zm-7.6 0q0-6.6 0-13.2-4.1 0-8.2 0 0 6.6 0 13.2 4.1 0 8.2 0zm-8.2 0q0-6.6 0-13.2-4.2 0-8.3 0 0 6.6 0 13.2 4.1 0 8.3 0zm-8.3 0q0-6.6 0-13.2-8.3 0-16.6 0 0 6.6 0 13.2 8.3 0 16.6 0zm-16.6 0q0-6.6 0-13.2-4.2 0-8.3 0 0 6.6 0 13.2 4.1 0 8.3 0zm-8.3 0q0-6.6 0-13.2-4.2 0-8.3 0 0 6.6 0 13.2 4.1 0 8.3 0zm-8.3 0q0-6.6 0-13.2-8.3 0-16.6 0 0 6.6 0 13.2 8.3 0 16.6 0zm-16.6 0q0-6.6 0-13.2-16.6 0-33.2 0-6.6 6.6-13.1 13.2 23.1 0 46.3 0zm-46.4 0q0 0 0.1 0 6.5-6.6 13.1-13.2h-0.1v-0.1q-6.6 6.6-13.1 13.2zm0-0.1q6.5-6.6 13.1-13.2 0-7.1 0-14.2-6.6 2.9-13.1 5.9 0 10.8 0 21.5zm0-21.5q6.5-3 13.1-5.9 0-7.2 0-14.3-6.6 0-13.1 0 0 10.1 0 20.2zm0-20.2q6.5 0 13.1 0 0-14.3 0-28.6-6.6 0-13.1 0 0 14.3 0 28.6zm0-28.6q6.5 0 13.1 0 0-28.6 0-57.2-6.6 0-13.1 0 0 28.6 0 57.2zm0-57.2q6.5 0 13.1 0 0-28.6 0-57.2-6.6 0-13.1 0 0 28.6 0 57.2zm0-57.2q6.5 0 13.1 0 0-28.6 0-57.2-6.6 0-13.1 0 0 28.6 0 57.2zm0-57.2q6.5 0 13.1 0 0-6.4 0-12.8-6.6 0-13.1 0 0 6.4 0 12.8zm0-12.8q6.5 0 13.1 0 0-6.4 0-12.8-6.6 0-13.1 0 0 6.4 0 12.8zm0-12.8q6.5 0 13.1 0 0-12.8 0-25.6-6.6 0-13.1 0 0 12.8 0 25.6zm0-25.6q6.5 0 13.1 0 0-25.6 0-51.2-6.6 0-13.1 0 0 25.6 0 51.2zm0-51.2q6.5 0 13.1 0 0-25.7 0-51.3-6.6 0-13.1 0 0 25.6 0 51.3zm0-51.3q6.5 0 13.1 0 0 0 0-51.2-6.6 0-13.1 0 0 51.2 0 51.2zm146 677.1q6.6 0 13.2 0 0-18.4 0-18.4-6.6 0-13.2 0 0 0 0 18.4zm0-18.4q6.6 0 13.2 0 0-9.2 0-18.4-6.6 0-13.2 0 0 9.2 0 18.4zm0-18.4q6.6 0 13.2 0 0-9.2 0-18.4-6.6 0-13.2 0 0 9.2 0 18.4zm0-18.4q6.6 0 13.2 0 0-9.2 0-18.4-6.6 0-13.2 0 0 9.2 0 18.4zm0-18.4q6.6 0 13.2 0 0-9.2 0-18.4-6.6 0-13.2 0 0 9.2 0 18.4zm0-18.4q6.6 0 13.2 0 0-9.2 0-18.4-6.6 0-13.2 0 0 9.2 0 18.4zm0-18.4q6.6 0 13.2 0 0-9.2 0-18.4-6.6 0-13.2 0 0 9.2 0 18.4zm0-18.4q6.6 0 13.2 0 0-9.3 0-18.5-6.6 0-13.2 0 0 9.2 0 18.5zm0-18.5q6.6 0 13.2 0 0-9.2 0-18.4-6.6 0-13.2 0 0 9.2 0 18.4zm0-18.4q6.6 0 13.2 0 0-9.2 0-18.4-6.6 0-13.2 0 0 9.2 0 18.4zm0-18.4q6.6 0 13.2 0 0-9.2 0-18.4-6.6 0-13.2 0 0 9.2 0 18.4zm0-18.4q6.6 0 13.2 0 0-9.2 0-18.4-6.6 0-13.2 0 0 9.2 0 18.4zm0-18.4q6.6 0 13.2 0 0-9.2 0-18.4-6.6 0-13.2 0 0 9.2 0 18.4zm0-18.4q6.6 0 13.2 0 0-9.2 0-18.4-6.6 0-13.2 0 0 9.2 0 18.4zm0-18.4q6.6 0 13.2 0 0-25 0-50-6.6 6.6-13.2 13.2 0 18.4 0 36.8zm0-36.9v0.1q6.6-6.6 13.2-13.2v-0.1q-0.1 0-0.1 0-6.6 6.6-13.2 13.2zm0 0q6.5-6.6 13.1-13.2-6.2 0-12.4 0-4.5 6.6-9 13.2 4.1 0 8.3 0zm-8.3 0q4.5-6.6 9-13.2-6.3 0-12.5 0-2.4 6.6-4.8 13.2 4.1 0 8.3 0zm-8.3 0q2.4-6.6 4.8-13.2-6.2 0-12.4 0-0.4 6.6-0.7 13.2 4.1 0 8.3 0zm-8.3 0q0.3-6.6 0.7-13.2-4.5 0-9 0 0 6.6 0 13.2 4.1 0 8.3 0zm-8.3 0q0-6.6 0-13.2-4.2 0-8.3 0 0 6.6 0 13.2 4.1 0 8.3 0zm-8.3 0q0-6.6 0-13.2-4.2 0-8.3 0 0 6.6 0 13.2 4.1 0 8.3 0zm-8.3 0q0-6.6 0-13.2-8.3 0-16.6 0 0 6.6 0 13.2 8.3 0 16.6 0zm-16.6 0q0-6.6 0-13.2-4.1 0-8.3 0 0 6.6 0 13.2 4.2 0 8.3 0zm-8.3 0q0-6.6 0-13.2-4.1 0-8.3 0 0 6.6 0 13.2 4.2 0 8.3 0zm-8.3 0q0-6.6 0-13.2-8.3 0-16.6 0 0 6.6 0 13.2 8.3 0 16.6 0zm-16.6 0q0-6.6 0-13.2-10 0-20 0-6.6 6.6-13.2 13.2 16.6 0 33.2 0zm-33.2 0q6.6-6.6 13.2-13.2h-0.1q-6.5 6.6-13.1 13.1zm0 0q6.6-6.6 13.1-13.2 0-3.5 0-7.1-6.5 3-13.1 6 0 7.1 0 14.3zm0-14.3q6.6-3 13.1-6 0-4.2 0-8.3-6.5 0-13.1 0 0 7.1 0 14.3zm0-14.3q6.6 0 13.1 0 0-14.3 0-28.6-6.5 0-13.1 0 0 14.3 0 28.6zm0-28.6q6.6 0 13.1 0 0-28.6 0-57.2-6.5 0-13.1 0 0 28.6 0 57.2zm0-57.2q6.6 0 13.1 0 0-28.6 0-57.2-6.5 0-13.1 0 0 28.6 0 57.2zm0-57.2q6.6 0 13.1 0 0-28.5 0-57.1-6.5 0-13.1 0 0 28.6 0 57.1zm0-57.1q6.6 0 13.1 0 0-6.4 0-12.8-6.5 0-13.1 0 0 6.4 0 12.8zm0-12.8q6.6 0 13.1 0 0-6.4 0-12.8-6.5 0-13.1 0 0 6.4 0 12.8zm0-12.8q6.6 0 13.1 0 0-12.9 0-25.7-6.5 0-13.1 0 0 12.8 0 25.7zm0-25.7q6.6 0 13.1 0 0-25.6 0-51.2-6.5 0-13.1 0 0 25.6 0 51.2zm0-51.2q6.6 0 13.1 0 0-25.6 0-51.2-6.5 0-13.1 0 0 25.6 0 51.2zm0-51.2q6.6 0 13.1 0 0 0 0-51.3-6.5 0-13.1 0 0 51.3 0 51.3zm146 677q0 0 13.2 0 0-18.4 0-18.4-13.2 0-13.2 0 0 0 0 18.4zm0-18.4q0 0 13.2 0 0-9.2 0-18.4-13.2 0-13.2 0 0 9.2 0 18.4zm0-18.4q0 0 13.2 0 0-9.2 0-18.4-13.2 0-13.2 0 0 9.2 0 18.4zm0-18.4q0 0 13.2 0 0-9.2 0-18.4-13.2 0-13.2 0 0 9.2 0 18.4zm0-18.4q0 0 13.2 0 0-9.2 0-18.4-13.2 0-13.2 0 0 9.2 0 18.4zm0-18.4q0 0 13.2 0 0-9.2 0-18.4-13.2 0-13.2 0 0 9.2 0 18.4zm0-18.4q0 0 13.2 0 0-9.2 0-18.4-13.2 0-13.2 0 0 9.2 0 18.4zm0-18.4q0 0 13.2 0 0-9.2 0-18.4-13.2 0-13.2 0 0 9.2 0 18.4zm0-18.4q0 0 13.2 0 0-9.2 0-18.4-13.2 0-13.2 0 0 9.2 0 18.4zm0-18.4q0 0 13.2 0 0-9.2 0-18.4-13.2 0-13.2 0 0 9.2 0 18.4zm0-18.4q0 0 13.2 0 0-9.2 0-18.4-13.2 0-13.2 0 0 9.2 0 18.4zm0-18.4q0 0 13.2 0 0-9.3 0-18.5-13.2 0-13.2 0 0 9.2 0 18.5zm0-18.5q0 0 13.2 0 0-9.2 0-18.4-13.2 0-13.2 0 0 9.2 0 18.4zm0-18.4q0 0 13.2 0 0-9.2 0-18.4-13.2 0-13.2 0 0 9.2 0 18.4zm0-18.4q0 0 13.2 0 0-31.5 0-63.1-13.2 13.2-13.2 13.2 0 24.9 0 49.9zm0-50v0.1q0 0 13.2-13.2 0 0 0-0.1-0.1 0-0.1 0-13.2 13.2-13.2 13.2 0.1 0 0.1 0zm-0.1 0q0 0 13.2-13.2-8.3 0-16.6 0-9 13.2-9 13.2 6.2 0 12.4 0zm-12.4 0q0 0 9-13.2-8.3 0-16.6 0-4.9 13.2-4.9 13.2 6.2 0 12.5 0zm-12.5 0q0 0 4.9-13.2-8.3 0-16.6 0-0.7 13.2-0.7 13.2 6.2 0 12.4 0zm-12.4 0q0 0 0.7-13.2-4.9 0-9.7 0 0 13.2 0 13.2 4.5 0 9 0zm-9 0q0 0 0-13.2-4.2 0-8.3 0 0 13.2 0 13.2 4.1 0 8.3 0zm-8.3 0q0 0 0-13.2-4.2 0-8.3 0 0 13.2 0 13.2 4.1 0 8.3 0zm-8.3 0q0 0 0-13.2-8.3 0-16.6 0 0 13.2 0 13.2 8.3 0 16.6 0zm-16.6 0q0 0 0-13.2-4.1 0-8.3 0 0 13.2 0 13.2 4.2 0 8.3 0zm-8.3 0q0 0 0-13.2-4.1 0-8.3 0 0 13.2 0 13.2 4.2 0 8.3 0zm-8.3 0q0 0 0-13.2-8.3 0-16.6 0 0 13.2 0 13.2 8.3 0 16.6 0zm-16.6 0q0 0 0-13.2-3.4 0-6.9 0-13.1 13.2-13.1 13.2 10 0 20 0zm-20.1 0h0.1q0 0 13.1-13.2-13.2 13.1-13.2 13.1zm0 0q0 0 13.2-13.1-13.2 6-13.2 6 0 3.5 0 7.1zm0-7.1q0 0 13.2-6 0-1.2 0-2.3-13.2 0-13.2 0 0 4.1 0 8.3zm0-8.3q0 0 13.2 0 0-14.3 0-28.6-13.2 0-13.2 0 0 14.3 0 28.6zm0-28.6q0 0 13.2 0 0-28.6 0-57.2-13.2 0-13.2 0 0 28.6 0 57.2zm0-57.2q0 0 13.2 0 0-28.6 0-57.2-13.2 0-13.2 0 0 28.6 0 57.2zm0-57.2q0 0 13.2 0 0-28.6 0-57.2-13.2 0-13.2 0 0 28.6 0 57.2zm0-57.2q0 0 13.2 0 0-6.4 0-12.8-13.2 0-13.2 0 0 6.4 0 12.8zm0-12.8q0 0 13.2 0 0-6.4 0-12.8-13.2 0-13.2 0 0 6.4 0 12.8zm0-12.8q0 0 13.2 0 0-12.8 0-25.6-13.2 0-13.2 0 0 12.8 0 25.6zm0-25.6q0 0 13.2 0 0-25.6 0-51.2-13.2 0-13.2 0 0 25.6 0 51.2zm0-51.2q0 0 13.2 0 0-25.7 0-51.3-13.2 0-13.2 0 0 25.6 0 51.3zm0-51.3q0 0 13.2 0 0 0 0-51.2-13.2 0-13.2 0 0 51.2 0 51.2z"/>
					</g>
					<g id="&lt;Group&gt;">
						<path id="&lt;Path&gt;" class="s1" d="m2115.6 1305.4l-92-159.3-92 159.3z"/>
					</g>
				</g>
				<g id="&lt;Group&gt;" style="mix-blend-mode: screen">
					<g id="&lt;Group&gt;">
						<path id="&lt;Mesh&gt;" class="s4" d="m1327.5 2233.5q13.1 0 13.1 0 0-44.4 0-44.4 0 0-13.1 0 0 0 0 44.4zm0-44.4q13.1 0 13.1 0 0-22.2 0-44.4 0 0-13.1 0 0 22.2 0 44.4zm0-44.4q13.1 0 13.1 0 0-22.2 0-44.4 0 0-13.1 0 0 22.2 0 44.4zm0-44.4q13.1 0 13.1 0 0-22.2 0-44.4 0 0-13.1 0 0 22.2 0 44.4zm0-44.4q13.1 0 13.1 0 0-22.2 0-44.4 0 0-13.1 0 0 22.2 0 44.4zm0-44.4q13.1 0 13.1 0 0-22.2 0-44.4 0 0-13.1 0 0 22.2 0 44.4zm0-44.4q13.1 0 13.1 0 0-22.2 0-44.4 0 0-13.1 0 0 22.2 0 44.4zm0-44.4q13.1 0 13.1 0 0-22.2 0-44.4 0 0-13.1 0 0 22.2 0 44.4zm0-44.4q13.1 0 13.1 0 0-22.2 0-44.4 0 0-13.1 0 0 22.2 0 44.4zm0-44.4q13.1 0 13.1 0 0-22.2 0-44.4 0 0-13.1 0 0 22.2 0 44.4zm0-44.4q13.1 0 13.1 0 0-22.2 0-44.4 0 0-13.1 0 0 22.2 0 44.4zm0-44.4q13.1 0 13.1 0 0-22.2 0-44.4 0 0-13.1 0 0 22.2 0 44.4zm0-44.4q13.1 0 13.1 0 0-22.2 0-44.4 0 0-13.1 0 0 22.2 0 44.4zm0-44.4q13.1 0 13.1 0 0-22.2 0-44.4 0 0-13.1 0 0 22.2 0 44.4zm0-44.4q13.1 0 13.1 0 0-51 0-102 0 0-13.1-13.1 0 57.5 0 115.1zm0-115.3q0 0.1 0 0.2 13.1 13.1 13.1 13.1v-0.1q0.1 0 0.1 0 0 0-13.1-13.2-0.1 0-0.1 0zm0.1 0q13.1 13.2 13.1 13.2 7.9 0 15.7 0 0 0-7.9-13.2-10.5 0-20.9 0zm20.9 0q7.9 13.2 7.9 13.2 7.9 0 15.7 0 0 0-2.7-13.2-10.4 0-20.9 0zm20.9 0q2.7 13.2 2.7 13.2 11.8 0 23.6 0 0 0 0-13.2-13.1 0-26.3 0zm26.3 0q0 13.2 0 13.2 20.9 0 41.9 0 0 0 0-13.2-21 0-41.9 0zm41.9 0q0 13.2 0 13.2 20.9 0 41.8 0 0 0 0-13.2-20.9 0-41.8 0zm41.8 0q0 13.2 0 13.2 14.4 0 28.7 0 0 0-13.1-13.2-7.8 0-15.6 0zm15.6 0q13.1 13.2 13.1 13.2 0 0-13.1-13.2zm0 0q13.1 13.2 13.1 13.2 0-28.9 0-57.7 0 0-13.1 0 0 22.3 0 44.5zm0-44.5q13.1 0 13.1 0 0-9.3 0-18.6 0 0-13.1 0 0 9.3 0 18.6zm0-18.6q13.1 0 13.1 0 0-9.2 0-18.5 0 0-13.1 0 0 9.3 0 18.5zm0-18.5q13.1 0 13.1 0 0-18.5 0-37 0 0-13.1 0 0 18.5 0 37zm0-37q13.1 0 13.1 0 0-37.1 0-74.1 0 0-13.1 0 0 37 0 74.1zm0-74.1q13.1 0 13.1 0 0-37.1 0-74.1 0 0-13.1 0 0 37 0 74.1zm0-74.1q13.1 0 13.1 0 0 0 0-74.1 0 0-13.1 0 0 74.1 0 74.1zm-154.4 1003.7q6.6 0 13.2 0 0-44.4 0-44.4-6.6 0-13.2 0 0 0 0 44.4zm0-44.4q6.6 0 13.2 0 0-22.2 0-44.4-6.6 0-13.2 0 0 22.2 0 44.4zm0-44.4q6.6 0 13.2 0 0-22.2 0-44.4-6.6 0-13.2 0 0 22.2 0 44.4zm0-44.4q6.6 0 13.2 0 0-22.2 0-44.4-6.6 0-13.2 0 0 22.2 0 44.4zm0-44.4q6.6 0 13.2 0 0-22.2 0-44.4-6.6 0-13.2 0 0 22.2 0 44.4zm0-44.4q6.6 0 13.2 0 0-22.2 0-44.4-6.6 0-13.2 0 0 22.2 0 44.4zm0-44.4q6.6 0 13.2 0 0-22.2 0-44.4-6.6 0-13.2 0 0 22.2 0 44.4zm0-44.4q6.6 0 13.2 0 0-22.2 0-44.4-6.6 0-13.2 0 0 22.2 0 44.4zm0-44.4q6.6 0 13.2 0 0-22.2 0-44.4-6.6 0-13.2 0 0 22.2 0 44.4zm0-44.4q6.6 0 13.2 0 0-22.2 0-44.4-6.6 0-13.2 0 0 22.2 0 44.4zm0-44.4q6.6 0 13.2 0 0-22.2 0-44.4-6.6 0-13.2 0 0 22.2 0 44.4zm0-44.4q6.6 0 13.2 0 0-22.2 0-44.4-6.6 0-13.2 0 0 22.2 0 44.4zm0-44.4q6.6 0 13.2 0 0-22.2 0-44.4-6.6 0-13.2 0 0 22.2 0 44.4zm0-44.4q6.6 0 13.2 0 0-22.2 0-44.4-6.6 0-13.2 0 0 22.2 0 44.4zm0-44.4q6.6 0 13.2 0 0-44.4 0-88.8-6.6-6.6-13.2-13.2 0 51 0 102zm0-102.1v0.1q6.6 6.6 13.2 13.2v-0.1h0.1q-6.6-6.6-13.2-13.2 0 0-0.1 0zm0.1 0q6.6 6.6 13.2 13.2 5.2 0 10.4 0-3.9-6.6-7.9-13.2-7.8 0-15.7 0zm15.7 0q4 6.6 7.9 13.2 5.3 0 10.5 0-1.3-6.6-2.7-13.2-7.8 0-15.7 0zm15.7 0q1.4 6.6 2.7 13.2 10.5 0 20.9 0 0-6.6 0-13.2-11.8 0-23.6 0zm23.6 0q0 6.6 0 13.2 20.9 0 41.9 0 0-6.6 0-13.2-21 0-41.9 0zm41.9 0q0 6.6 0 13.2 20.9 0 41.8 0 0-6.6 0-13.2-20.9 0-41.8 0zm41.8 0q0 6.6 0 13.2 20.9 0 41.9 0-6.6-6.6-13.2-13.2-14.3 0-28.7 0zm28.7 0q6.6 6.6 13.2 13.2v-0.1q-6.6-6.5-13.2-13.1zm0 0q6.6 6.5 13.2 13.1 0-35.4 0-70.9-6.6 0-13.2 0 0 28.9 0 57.8zm0-57.8q6.6 0 13.2 0 0-9.2 0-18.5-6.6 0-13.2 0 0 9.3 0 18.5zm0-18.5q6.6 0 13.2 0 0-9.2 0-18.5-6.6 0-13.2 0 0 9.3 0 18.5zm0-18.5q6.6 0 13.2 0 0-18.5 0-37.1-6.6 0-13.2 0 0 18.6 0 37.1zm0-37.1q6.6 0 13.2 0 0-37 0-74-6.6 0-13.2 0 0 37 0 74zm0-74q6.6 0 13.2 0 0-37.1 0-74.1-6.6 0-13.2 0 0 37 0 74.1zm0-74.1q6.6 0 13.2 0 0 0 0-74.1-6.6 0-13.2 0 0 74.1 0 74.1zm-154.3 1003.7q6.6 0 13.2 0 0-44.4 0-44.4-6.6 0-13.2 0 0 0 0 44.4zm0-44.4q6.6 0 13.2 0 0-22.2 0-44.4-6.6 0-13.2 0 0 22.2 0 44.4zm0-44.4q6.6 0 13.2 0 0-22.2 0-44.4-6.6 0-13.2 0 0 22.2 0 44.4zm0-44.4q6.6 0 13.2 0 0-22.2 0-44.4-6.6 0-13.2 0 0 22.2 0 44.4zm0-44.4q6.6 0 13.2 0 0-22.2 0-44.4-6.6 0-13.2 0 0 22.2 0 44.4zm0-44.4q6.6 0 13.2 0 0-22.2 0-44.4-6.6 0-13.2 0 0 22.2 0 44.4zm0-44.4q6.6 0 13.2 0 0-22.2 0-44.4-6.6 0-13.2 0 0 22.2 0 44.4zm0-44.4q6.6 0 13.2 0 0-22.2 0-44.4-6.6 0-13.2 0 0 22.2 0 44.4zm0-44.4q6.6 0 13.2 0 0-22.2 0-44.5-6.6 0-13.2 0 0 22.3 0 44.5zm0-44.5q6.6 0 13.2 0 0-22.2 0-44.4-6.6 0-13.2 0 0 22.2 0 44.4zm0-44.4q6.6 0 13.2 0 0-22.2 0-44.4-6.6 0-13.2 0 0 22.2 0 44.4zm0-44.4q6.6 0 13.2 0 0-22.2 0-44.4-6.6 0-13.2 0 0 22.2 0 44.4zm0-44.4q6.6 0 13.2 0 0-22.2 0-44.4-6.6 0-13.2 0 0 22.2 0 44.4zm0-44.4q6.6 0 13.2 0 0-22.2 0-44.4-6.6 0-13.2 0 0 22.2 0 44.4zm0-44.4q6.6 0 13.2 0 0-37.8 0-75.6-6.6-6.6-13.2-13.2 0 44.4 0 88.8zm0-88.8q6.6 6.6 13.2 13.2v-0.1q-6.6-6.5-13.1-13.1zm0 0q6.6 6.6 13.2 13.1 2.6 0 5.2 0-3.9-6.5-7.9-13.1-5.2 0-10.5 0zm10.5 0q4 6.6 7.9 13.1 2.6 0 5.2 0-1.3-6.5-2.6-13.1-5.3 0-10.5 0zm10.5 0q1.3 6.6 2.6 13.1 9.2 0 18.3 0 0-6.5 0-13.1-10.5 0-20.9 0zm20.9 0q0 6.6 0 13.1 20.9 0 41.8 0 0-6.5 0-13.1-20.9 0-41.8 0zm41.8 0q0 6.6 0 13.1 21 0 41.9 0 0-6.5 0-13.1-20.9 0-41.9 0zm41.9 0q0 6.6 0 13.1 27.5 0 55 0-6.6-6.5-13.2-13.1-20.9 0-41.8 0zm41.9 0h-0.1q6.6 6.6 13.2 13.1 0 0 0.1 0v-0.1q-6.6-6.5-13.2-13.1zm0-0.1q6.6 6.6 13.2 13.2 0-42 0-84-6.6 0-13.2 0 0 35.4 0 70.8zm0-70.8q6.6 0 13.2 0 0-9.3 0-18.6-6.6 0-13.2 0 0 9.3 0 18.6zm0-18.6q6.6 0 13.2 0 0-9.2 0-18.5-6.6 0-13.2 0 0 9.3 0 18.5zm0-18.5q6.6 0 13.2 0 0-18.5 0-37-6.6 0-13.2 0 0 18.5 0 37zm0-37q6.6 0 13.2 0 0-37.1 0-74.1-6.6 0-13.2 0 0 37 0 74.1zm0-74.1q6.6 0 13.2 0 0-37.1 0-74.1-6.6 0-13.2 0 0 37 0 74.1zm0-74.1q6.6 0 13.2 0 0 0 0-74.1-6.6 0-13.2 0 0 74.1 0 74.1zm-154.4 1003.7q0 0 13.2 0 0-44.4 0-44.4-13.2 0-13.2 0 0 0 0 44.4zm0-44.4q0 0 13.2 0 0-22.2 0-44.4-13.2 0-13.2 0 0 22.2 0 44.4zm0-44.4q0 0 13.2 0 0-22.2 0-44.4-13.2 0-13.2 0 0 22.2 0 44.4zm0-44.4q0 0 13.2 0 0-22.2 0-44.4-13.2 0-13.2 0 0 22.2 0 44.4zm0-44.4q0 0 13.2 0 0-22.2 0-44.4-13.2 0-13.2 0 0 22.2 0 44.4zm0-44.4q0 0 13.2 0 0-22.2 0-44.4-13.2 0-13.2 0 0 22.2 0 44.4zm0-44.4q0 0 13.2 0 0-22.2 0-44.4-13.2 0-13.2 0 0 22.2 0 44.4zm0-44.4q0 0 13.2 0 0-22.2 0-44.4-13.2 0-13.2 0 0 22.2 0 44.4zm0-44.4q0 0 13.2 0 0-22.2 0-44.4-13.2 0-13.2 0 0 22.2 0 44.4zm0-44.4q0 0 13.2 0 0-22.2 0-44.4-13.2 0-13.2 0 0 22.2 0 44.4zm0-44.4q0 0 13.2 0 0-22.2 0-44.4-13.2 0-13.2 0 0 22.2 0 44.4zm0-44.4q0 0 13.2 0 0-22.2 0-44.4-13.2 0-13.2 0 0 22.2 0 44.4zm0-44.4q0 0 13.2 0 0-22.2 0-44.4-13.2 0-13.2 0 0 22.2 0 44.4zm0-44.4q0 0 13.2 0 0-22.2 0-44.4-13.2 0-13.2 0 0 22.2 0 44.4zm0-44.4q0 0 13.2 0 0-31.3 0-62.6-13.2-13.1-13.2-13.1 0 37.8 0 75.7zm0-75.7q0 0 13.2 13.1-13.1-13.1-13.1-13.1zm0 0q0 0 13.2 13.1-8-13.1-8-13.1-2.6 0-5.2 0zm5.2 0q0 0 8 13.1-2.7-13.1-2.7-13.1-2.6 0-5.3 0zm5.3 0q0 0 2.7 13.1 7.7 0 15.5 0 0-13.1 0-13.1-9.1 0-18.2 0zm18.2 0q0 0 0 13.1 20.9 0 41.9 0 0-13.1 0-13.1-21 0-41.9 0zm41.9 0q0 0 0 13.1 20.9 0 41.8 0 0-13.1 0-13.1-20.9 0-41.8 0zm41.8 0q0 0 0 13.1 34.1 0 68.1 0-13.1-13.1-13.1-13.1-27.5 0-55 0zm55.1 0q-0.1 0-0.1 0 0 0 13.1 13.1 0.1 0 0.2 0 0 0 0-0.1-13.2-13.1-13.2-13.1zm0-0.1q0 0 13.2 13.1 0-48.6 0-97.1-13.2 0-13.2 0 0 42 0 84zm0-84q0 0 13.2 0 0-9.3 0-18.6-13.2 0-13.2 0 0 9.3 0 18.6zm0-18.6q0 0 13.2 0 0-9.2 0-18.5-13.2 0-13.2 0 0 9.3 0 18.5zm0-18.5q0 0 13.2 0 0-18.5 0-37-13.2 0-13.2 0 0 18.5 0 37zm0-37q0 0 13.2 0 0-37.1 0-74.1-13.2 0-13.2 0 0 37 0 74.1zm0-74.1q0 0 13.2 0 0-37.1 0-74.1-13.2 0-13.2 0 0 37 0 74.1zm0-74.1q0 0 13.2 0 0 0 0-74.1-13.2 0-13.2 0 0 74.1 0 74.1z"/>
					</g>
					<g id="&lt;Group&gt;">
						<path id="&lt;Path&gt;" class="s1" d="m1613.3 1182.6l-92-159.3-92 159.3z"/>
					</g>
				</g>
			</g>
		</g>
	</g>
</svg>